# AST/ASF file generated using VICON BodyLanguage
# -----------------------------------------------
:version 1.10
:name VICON
:units
  mass 1.0
  length 0.45
  angle deg
:documentation
   .ast/.asf automatically generated from VICON data using
   VICON BodyBuilder and BodyLanguage model FoxedUp or BRILLIANT.MOD
:root
   order TX TY TZ RX RY RZ
   axis XYZ
   position 0 0 0  
   orientation 0 0 0 
:bonedata
  begin
     id 1 
     name lhipjoint
     direction 0.734343 -0.627749 0.258209 
     length 2.5437 
     axis 0 0 0  XYZ
  end
  begin
     id 2 
     name lfemur
     direction 0.34202 -0.939693 0  
     length 6.7391  
     axis 0 0 20  XYZ
    dof rx ry rz
    limits (-160.0 20.0)
           (-70.0 70.0)
           (-60.0 70.0)
  end
  begin
     id 3 
     name ltibia
     direction 0.34202 -0.939693 0   
     length 7.21536   
     axis 0 0 20   XYZ
    dof rx
    limits (-10.0 170.0)
  end
  begin
     id 4 
     name lfoot
     direction 0.0489572 -0.134509 0.989702   
     length 1.61313   
     axis -90 7.62852e-016 20   XYZ
    dof rx rz
    limits (-45.0 90.0)
           (-70.0 20.0)
  end
  begin
     id 5 
     name ltoes
     direction 1.53451e-011 -4.21692e-011 1   
     length 0.823104   
     axis -90 7.62852e-016 20   XYZ
    dof rx
    limits (-90.0 20.0)
  end
  begin
     id 6 
     name rhipjoint
     direction -0.746398 -0.615468 0.253157   
     length 2.59446  
     axis 0 0 0  XYZ 
  end
  begin
     id 7 
     name rfemur
     direction -0.34202 -0.939693 0   
     length 6.7075   
     axis 0 0 -20   XYZ
    dof rx ry rz
    limits (-160.0 20.0)
           (-70.0 70.0)
           (-70.0 60.0)
  end
  begin
     id 8 
     name rtibia
     direction -0.34202 -0.939693 0   
     length 7.27262   
     axis 0 0 -20   XYZ
    dof rx
    limits (-10.0 170.0)
 end
 begin
     id 9 
     name rfoot
     direction -0.0455203 -0.125066 0.991104   
     length 1.91095  
     axis -90 -7.62852e-016 -20   XYZ
    dof rx rz
    limits (-45.0 90.0)
           (-20.0 70.0)
  end
  begin
     id 10 
     name rtoes
     direction -1.53601e-011 -4.21913e-011 1   
     length 0.969037   
     axis -90 -7.62852e-016 -20   XYZ
    dof rx
    limits (-90.0 20.0)
  end
  begin
     id 11 
     name lowerback
     direction 0.0181546 0.999122 -0.0377542   
     length 1.99916   
     axis 0 0 0   XYZ
    dof rx ry rz
    limits (-20.0 45.0)
           (-30.0 30.0)
           (-30.0 30.0)
  end
  begin
     id 12 
     name upperback
     direction 0.0203486 0.99589 0.0882534   
     length 1.951   
     axis 0 0 0   XYZ
    dof rx ry rz
    limits (-20.0 45.0)
           (-30.0 30.0)
           (-30.0 30.0)
  end
  begin
     id 13 
     name thorax
     direction 0.0131685 0.994241 0.106355   
     length 1.97461   
     axis 0 0 0   XYZ
    dof rx ry rz
    limits (-20.0 45.0)
           (-30.0 30.0)
           (-30.0 30.0)
  end
  begin
     id 14 
     name lowerneck
     direction -0.0281395 0.999325 0.023617   
     length 1.7959   
     axis 0 0 0   XYZ
    dof rx ry rz
    limits (-20.0 45.0)
           (-30.0 30.0)
           (-30.0 30.0)
  end
  begin
     id 15 
     name upperneck
     direction 0.0288721 0.991984 -0.123019   
     length 1.79917   
     axis 0 0 0   XYZ
    dof rx ry rz
    limits (-20.0 45.0)
           (-30.0 30.0)
           (-30.0 30.0)
  end
  begin
     id 16
     name head
     direction 0.0133797 0.998944 -0.0439492  
     length 1.80902  
     axis 0 0 0   XYZ
    dof rx ry rz
    limits (-20.0 45.0)
           (-30.0 30.0)
           (-30.0 30.0)
  end
  begin
     id 17 
     name lclavicle
     direction 0.919195 0.377107 0.113449  
     length 3.17815  
     axis 0 0 0   XYZ
    dof ry rz
    limits (-20.0 10.0)
           (0.0 20.0)
  end
  begin
     id 18 
     name lhumerus
     direction 1 -4.48959e-011 2.13129e-027   
     length 4.84137   
     axis 180 -30 -90   XYZ
    dof rx ry rz
    limits (-60.0 90.0)
           (-90.0 90.0)
           (-90.0 90.0)
  end
  begin
     id 19
     name lradius
     direction 1 -4.48957e-011 -6.30627e-028   
     length 3.2452   
     axis 180 -30 -90   XYZ
    dof rx
    limits (-10.0 170.0)
  end
  begin
     id 20
     name lwrist
     direction 1 -4.4901e-011 9.13299e-027   
     length 1.6226   
     axis -6.84618e-015 90 90   XYZ
    dof ry
    limits (-180.0 0.0)
 end
  begin
     id 21 
     name lhand
     direction 1 -4.48816e-011 1.82293e-026   
     length 0.521221   
     axis -1.16502e-014 90 90   XYZ
    dof rx rz
    limits (-90.0 90.0)
           (-45.0 45.0)
  end
  begin
     id 22 
     name lfingers
     direction 1 -4.49108e-011 3.65687e-026   
     length 0.420221   
     axis -2.33008e-014 90 90   XYZ
    dof rx
    limits (0.0 90.0)
  end
  begin
     id 23
     name lthumb
     direction 0.707107 -6.34943e-011 0.707107   
     length 0.603356   
     axis -90 45 5.69224e-014   XYZ
    dof rx rz
    limits (-45.0 45.0)
           (-45.0 45.0)
  end
  begin
     id 24 
     name rclavicle
     direction -0.90847 0.38596 0.160368   
     length 3.12973  
     axis 0 0 0   XYZ 
    dof ry rz
    limits (-10.0 20.0)
           (-20.0 0.0)
  end
  begin
     id 25 
     name rhumerus
     direction -1 -4.48974e-011 4.47268e-028  
     length 4.72284   
     axis 180 30 90   XYZ
    dof rx ry rz
    limits (-90.0 60.0)
           (-90.0 90.0)
           (-90.0 90.0)
  end
  begin
     id 26 
     name rradius
     direction -1 -4.48969e-011 3.43203e-027   
     length 3.23459   
     axis 180 30 90   XYZ
    dof rx
    limits (-10.0 170.0)
  end
  begin
     id 27 
     name rwrist
     direction -1 -4.48969e-011 9.12911e-027   
     length 1.6173   
     axis -6.84618e-015 -90 -90   XYZ
    dof ry
    limits (-180.0 0.0)
  end
  begin
     id 28
     name rhand
     direction -1 -4.49194e-011 1.83006e-026   
     length 0.307416   
     axis -1.16502e-014 -90 -90   XYZ
    dof rx rz
    limits (-90.0 90.0)
           (-45.0 45.0)
  end
  begin
     id 29
     name rfingers
     direction -1 -4.48423e-011 3.63103e-026   
     length 0.247847   
     axis -2.33008e-014 -90 -90   XYZ
    dof rx
    limits (0.0 90.0)
  end
  begin
     id 30
     name rthumb
     direction -0.707107 -6.34802e-011 0.707107   
     length 0.35586   
     axis -90 -45 -5.69224e-014   XYZ
    dof rx rz
    limits (-45.0 45.0)
           (-45.0 45.0)
  end
:hierarchy
  begin
    root lhipjoint rhipjoint lowerback
    lhipjoint lfemur
    lfemur ltibia
    ltibia lfoot
    lfoot ltoes
    rhipjoint rfemur
    rfemur rtibia
    rtibia rfoot
    rfoot rtoes
    lowerback upperback
    upperback thorax
    thorax lowerneck lclavicle rclavicle
    lowerneck upperneck
    upperneck head
    lclavicle lhumerus
    lhumerus lradius
    lradius lwrist
    lwrist lhand lthumb
    lhand lfingers
    rclavicle rhumerus
    rhumerus rradius
    rradius rwrist
    rwrist rhand rthumb
    rhand rfingers
  end

#!OML:ASF H:\Terrain\Patient Classification 1\Animal1\Tuesday\Animal1.ASF
:FULLY-SPECIFIED
:DEGREES
238
root -0.106582 17.0895 14.9518 -166.761 -6.11522 180.81
lowerback -4.53045 0.932476 -1.8811
upperback -5.94885 0.854601 0.19468
thorax -3.63318 0.32133 1.27602
lowerneck -6.60574 -1.7245 -5.12333
upperneck 25.3632 -6.80455 11.1877
head 9.59324 -3.41732 3.93995
rclavicle 1.93271e-014 1.49089e-015
rhumerus -41.7728 12.5848 -94.0131
rradius 23.8983
rwrist -6.77273
rhand -19.9721 26.6625
rfingers 7.12502
rthumb 6.36679 -3.22185
lclavicle 1.93271e-014 1.49089e-015
lhumerus -40.8773 6.34773 80.4342
lradius 35.7218
lwrist -24.8677
lhand -4.64469 38.0383
lfingers 7.12502
lthumb 21.1348 66.9063
rfemur -24.0736 19.8531 10.7541
rtibia 28.2786
rfoot -18.6315 -41.8606
rtoes 48.4675
lfemur -18.7767 -19.3892 -17.7682
ltibia 17.0358
lfoot -7.56579 23.9519
ltoes -9.66056
239
root -0.0537719 17.0868 14.9383 -166.845 -6.13111 180.686
lowerback -4.3667 0.947624 -1.9509
upperback -6.01118 0.866422 0.106114
thorax -3.79087 0.328425 1.22184
lowerneck -6.68882 -1.71126 -5.13315
upperneck 25.5721 -6.81336 11.1296
head 9.68303 -3.42932 3.92192
rclavicle -7.3659e-015 -1.12313e-014
rhumerus -41.9326 12.4907 -94.0447
rradius 23.7384
rwrist -6.47272
rhand -20.7529 26.9254
rfingers 7.12502
rthumb 5.61296 -2.98028
lclavicle -7.3659e-015 -1.12313e-014
lhumerus -40.9222 6.44678 80.1795
lradius 35.746
lwrist -25.458
lhand 0.238525 42.4167
lfingers 7.12502
lthumb 25.8188 70.6845
rfemur -23.7843 20.7557 10.0302
rtibia 27.6769
rfoot -20.1816 -40.505
rtoes 46.8162
lfemur -18.4378 -19.1409 -17.8103
ltibia 16.7195
lfoot -7.46105 23.8293
ltoes -11.0659
240
root 0.000607013 17.0866 14.9204 -166.818 -6.08454 180.084
lowerback -4.2898 0.949134 -2.55261
upperback -6.05944 0.863322 -0.106646
thorax -3.89523 0.345456 1.33791
lowerneck -6.84668 -1.7213 -5.07582
upperneck 25.8444 -6.86113 11.0158
head 9.81086 -3.45551 3.86772
rclavicle -1.08307e-014 -9.14409e-015
rhumerus -42.0279 12.5394 -94.2112
rradius 23.6476
rwrist -6.79318
rhand -20.9337 27.5501
rfingers 7.12502
rthumb 5.43838 -2.3601
lclavicle -1.08307e-014 -9.14409e-015
lhumerus -40.9344 6.48892 79.9676
lradius 35.5126
lwrist -25.5075
lhand -3.76749 38.6567
lfingers 7.12502
lthumb 21.9772 67.4282
rfemur -23.6605 21.6888 8.77402
rtibia 27.1827
rfoot -20.416 -39.6357
rtoes 45.2274
lfemur -18.0715 -19.2463 -18.3087
ltibia 16.2974
lfoot -7.3405 23.9641
ltoes -12.2127
241
root 0.0558737 17.087 14.9002 -166.718 -6.14175 179.639
lowerback -4.44184 0.852754 -3.00123
upperback -6.03014 0.741812 -0.191337
thorax -3.78292 0.298269 1.50229
lowerneck -7.06766 -1.72167 -5.1963
upperneck 25.9617 -6.81861 10.9539
head 9.89316 -3.43899 3.87146
rclavicle -8.69683e-016 9.93923e-015
rhumerus -41.948 13.0943 -94.4591
rradius 23.5216
rwrist -7.41915
rhand -20.2351 27.7876
rfingers 7.12502
rthumb 6.11283 -2.10425
lclavicle -8.69683e-016 9.93923e-015
lhumerus -40.9331 6.91756 79.7194
lradius 35.2909
lwrist -25.9153
lhand -5.48607 36.708
lfingers 7.12502
lthumb 20.3263 65.6644
rfemur -23.6923 22.6794 7.73072
rtibia 26.7961
rfoot -18.1899 -39.8222
rtoes 42.9818
lfemur -17.7795 -19.4011 -18.5404
ltibia 15.7501
lfoot -6.95617 24.018
ltoes -13.539
242
root 0.115252 17.0885 14.8849 -166.592 -6.15659 179.578
lowerback -4.79175 0.799535 -3.08643
upperback -5.98793 0.681938 -0.159981
thorax -3.54197 0.266796 1.5852
lowerneck -7.0819 -1.67595 -5.38371
upperneck 25.9065 -6.68579 10.9498
head 9.86716 -3.38776 3.91808
rclavicle -8.29926e-015 8.74653e-015
rhumerus -41.9126 13.4035 -94.5339
rradius 23.4027
rwrist -7.59763
rhand -20.1935 27.3967
rfingers 7.12502
rthumb 6.15302 -2.49396
lclavicle -8.29926e-015 8.74653e-015
lhumerus -40.8724 7.32015 79.489
lradius 35.1437
lwrist -26.1408
lhand -5.91177 36.0607
lfingers 7.12502
lthumb 19.9172 65.0601
rfemur -23.8633 23.8525 7.06159
rtibia 26.4315
rfoot -14.5073 -40.3343
rtoes 39.9098
lfemur -17.5878 -19.1387 -18.3596
ltibia 15.1746
lfoot -6.38951 23.8478
ltoes -15.0527
243
root 0.176322 17.0907 14.8677 -166.576 -6.22118 179.533
lowerback -4.91442 0.845987 -3.08639
upperback -6.05189 0.732927 -0.252559
thorax -3.54177 0.285646 1.49149
lowerneck -6.85112 -1.62856 -5.40388
upperneck 25.9269 -6.67057 11.023
head 9.83055 -3.39344 3.95195
rclavicle 2.21396e-014 6.95746e-015
rhumerus -42.0593 12.9567 -94.4782
rradius 23.2611
rwrist -7.49273
rhand -21.0061 27.2228
rfingers 7.12502
rthumb 5.36849 -2.68921
lclavicle 2.21396e-014 6.95746e-015
lhumerus -40.8692 7.43043 79.1212
lradius 34.8076
lwrist -26.3721
lhand -3.80679 37.1286
lfingers 7.12502
lthumb 21.9395 65.9045
rfemur -23.7747 25.1459 6.4847
rtibia 25.9491
rfoot -14.0685 -39.9934
rtoes 39.538
lfemur -17.4029 -18.7744 -18.2186
ltibia 14.8595
lfoot -6.09749 23.528
ltoes -16.0093
244
root 0.236898 17.0899 14.8469 -166.668 -6.35727 179.453
lowerback -4.70258 0.914269 -3.0665
upperback -6.20186 0.794238 -0.415056
thorax -3.81813 0.310698 1.31082
lowerneck -6.61003 -1.63717 -5.31015
upperneck 26.0138 -6.78128 11.0795
head 9.82541 -3.45506 3.94607
rclavicle 1.83068e-014 6.95746e-015
rhumerus -42.2124 12.2139 -94.3696
rradius 23.0505
rwrist -7.30924
rhand -21.828 27.8575
rfingers 7.12502
rthumb 4.57485 -2.07312
lclavicle 1.83068e-014 6.95746e-015
lhumerus -41.0481 7.38674 78.7298
lradius 34.7152
lwrist -26.9795
lhand 1.97821 41.0457
lfingers 7.12502
lthumb 27.4837 69.0602
rfemur -23.4025 26.1069 6.10441
rtibia 25.472
rfoot -17.9408 -38.1787
rtoes 43.1472
lfemur -17.1902 -18.7007 -18.103
ltibia 14.7505
lfoot -6.4827 23.3721
ltoes -14.6971
245
root 0.302979 17.0818 14.8246 -166.784 -6.40059 179.441
lowerback -4.59078 0.978906 -3.10895
upperback -6.26494 0.868623 -0.48017
thorax -3.9507 0.348132 1.26651
lowerneck -6.54777 -1.69081 -5.16082
upperneck 26.0509 -6.86688 10.9581
head 9.82719 -3.49723 3.86755
rclavicle -1.97418e-014 2.5842e-015
rhumerus -42.397 11.9888 -94.4193
rradius 23.1922
rwrist -7.80557
rhand -21.7397 27.5214
rfingers 7.12502
rthumb 4.66015 -2.40731
lclavicle -1.97418e-014 2.5842e-015
lhumerus -41.1541 7.10125 78.7146
lradius 35.0241
lwrist -26.7589
lhand 2.90547 42.6573
lfingers 7.12502
lthumb 28.3702 70.5276
rfemur -22.9557 26.3991 6.10957
rtibia 25.1645
rfoot -17.9325 -37.171
rtoes 42.0736
lfemur -16.9368 -18.8732 -17.873
ltibia 14.6313
lfoot -6.75373 23.6125
ltoes -13.3947
246
root 0.37259 17.0741 14.8043 -166.828 -6.51757 179.303
lowerback -4.68814 0.944385 -3.31448
upperback -6.21446 0.833413 -0.501278
thorax -3.84626 0.337983 1.3606
lowerneck -6.66108 -1.68148 -5.12975
upperneck 26.0506 -6.79565 10.8405
head 9.83714 -3.45953 3.82735
rclavicle -3.71976e-014 -2.18663e-015
rhumerus -42.5074 12.3372 -94.648
rradius 23.4274
rwrist -8.75981
rhand -21.3935 26.2957
rfingers 7.12502
rthumb 4.99442 -3.62541
lclavicle -3.71976e-014 -2.18663e-015
lhumerus -41.1185 6.97781 78.7679
lradius 35.133
lwrist -26.035
lhand -2.40134 39.9022
lfingers 7.12502
lthumb 23.2884 68.5138
rfemur -22.4669 25.929 6.28151
rtibia 25.0039
rfoot -15.1026 -37.2176
rtoes 36.2593
lfemur -16.7569 -19.0803 -17.739
ltibia 14.4977
lfoot -6.5515 23.7805
ltoes -13.5717
247
root 0.442492 17.071 14.7903 -166.833 -6.71772 179.128
lowerback -4.67867 0.872879 -3.48718
upperback -6.20379 0.74023 -0.541674
thorax -3.83942 0.297615 1.41435
lowerneck -6.6828 -1.62482 -5.29647
upperneck 26.042 -6.69269 10.9223
head 9.83501 -3.41542 3.8979
rclavicle 3.37313e-015 2.28602e-014
rhumerus -42.5579 12.4852 -94.7505
rradius 23.4529
rwrist -9.10865
rhand -21.3755 25.7618
rfingers 7.12502
rthumb 5.01181 -4.15896
lclavicle 3.37313e-015 2.28602e-014
lhumerus -41.25 6.92495 78.7168
lradius 35.1593
lwrist -25.4795
lhand -5.41448 37.8739
lfingers 7.12502
lthumb 20.3951 66.8229
rfemur -21.9803 25.4187 6.45553
rtibia 24.8827
rfoot -18.0533 -35.7511
rtoes 36.6024
lfemur -16.6945 -19.241 -17.6173
ltibia 14.4368
lfoot -6.5817 23.7156
ltoes -13.9133
248
root 0.516242 17.0665 14.7775 -166.843 -6.87061 179.038
lowerback -4.54174 0.848219 -3.5815
upperback -6.27142 0.693111 -0.609635
thorax -3.9865 0.276707 1.39483
lowerneck -6.79031 -1.5824 -5.31515
upperneck 26.2398 -6.67287 10.9368
head 9.92647 -3.40758 3.91031
rclavicle -2.93829e-015 2.78299e-015
rhumerus -42.621 12.2009 -94.7029
rradius 23.4724
rwrist -8.96758
rhand -21.1772 26.2939
rfingers 7.12502
rthumb 5.20323 -3.62222
lclavicle -2.93829e-015 2.78299e-015
lhumerus -41.3796 6.88297 78.5611
lradius 35.0851
lwrist -25.2747
lhand -5.59991 37.505
lfingers 7.12502
lthumb 20.2169 66.473
rfemur -21.5491 25.3851 6.61303
rtibia 24.7053
rfoot -20.3557 -34.3652
rtoes 36.6736
lfemur -16.6905 -19.363 -17.386
ltibia 14.4599
lfoot -6.98456 23.6913
ltoes -13.895
249
root 0.591877 17.0579 14.7602 -166.842 -7.02284 179.064
lowerback -4.52967 0.861781 -3.56054
upperback -6.31353 0.70273 -0.658054
thorax -4.03703 0.278436 1.33292
lowerneck -6.93823 -1.58315 -5.18392
upperneck 26.4193 -6.67607 10.7807
head 10.0123 -3.40585 3.83181
rclavicle 1.02498e-014 -2.5842e-014
rhumerus -42.5817 11.9285 -94.6285
rradius 23.498
rwrist -8.8701
rhand -21.2685 27.2109
rfingers 7.12502
rthumb 5.11505 -2.70738
lclavicle 1.02498e-014 -2.5842e-014
lhumerus -41.3422 7.04474 78.3771
lradius 34.9731
lwrist -25.5317
lhand -5.54071 37.3875
lfingers 7.12502
lthumb 20.2738 66.3494
rfemur -21.1615 25.6192 6.79853
rtibia 24.3687
rfoot -18.5395 -34.6369
rtoes 31.6243
lfemur -16.7466 -19.4592 -17.0072
ltibia 14.5541
lfoot -7.17767 23.6912
ltoes -13.579
250
root 0.666631 17.051 14.7398 -166.874 -7.28523 179.322
lowerback -4.67805 0.859868 -3.24543
upperback -6.28753 0.705366 -0.625172
thorax -3.91925 0.26628 1.19238
lowerneck -6.80029 -1.62974 -5.17892
upperneck 26.2596 -6.67846 10.6898
head 9.9242 -3.41353 3.79776
rclavicle 4.05645e-015 4.17448e-015
rhumerus -42.5122 11.9983 -94.6818
rradius 23.5125
rwrist -8.96586
rhand -21.4191 27.3419
rfingers 7.12502
rthumb 4.96965 -2.57977
lclavicle 4.05645e-015 4.17448e-015
lhumerus -41.3419 7.22913 78.2745
lradius 35.0539
lwrist -25.7396
lhand -5.19374 37.9175
lfingers 7.12502
lthumb 20.6073 66.8436
rfemur -20.7149 26.2367 7.16565
rtibia 23.8218
rfoot -18.2058 -34.6629
rtoes 29.8091
lfemur -16.858 -19.6887 -16.3436
ltibia 14.7427
lfoot -7.70832 23.791
ltoes -12.0038
251
root 0.741599 17.0432 14.7166 -166.934 -7.51104 179.393
lowerback -4.86567 0.841631 -3.12777
upperback -6.22347 0.69164 -0.636506
thorax -3.74309 0.253029 1.11677
lowerneck -6.68855 -1.64269 -5.23413
upperneck 26.119 -6.66276 10.7186
head 9.85236 -3.40816 3.81937
rclavicle 2.26987e-014 2.28602e-014
rhumerus -42.5768 12.05 -94.7862
rradius 23.6073
rwrist -8.9627
rhand -20.6516 26.9925
rfingers 7.12502
rthumb 5.71069 -2.91055
lclavicle 2.26987e-014 2.28602e-014
lhumerus -41.3715 7.5174 78.0441
lradius 34.9592
lwrist -25.8941
lhand -5.06941 37.8012
lfingers 7.12502
lthumb 20.7267 66.7144
rfemur -20.1285 27.0271 7.36783
rtibia 23.2192
rfoot -21.442 -33.2896
rtoes 34.4707
lfemur -16.8889 -20.1742 -15.8803
ltibia 14.9348
lfoot -8.71196 24.1461
ltoes -9.3824
